{"title":"Treasure Island 1990 DVDRip x264 AC3-PsiX","uid":9438166,"size":1717984571,"categoryP":"video","categoryS":"movies","magnet":"?xt=urn:btih:3f4ab8313b7764ee131773024056d6bdeac0b25f&amp;dn=Treasure+Island+1990+DVDRip+x264+AC3-PsiX&amp;tr=udp%3A%2F%2Ftracker.openbittorrent.com%3A80&amp;tr=udp%3A%2F%2Fopen.demonii.com%3A1337&amp;tr=udp%3A%2F%2Ftracker.coppersurfer.tk%3A6969&amp;tr=udp%3A%2F%2Fexodus.desync.com%3A6969","seeders":22,"leechers":5,"uploader":".BONE.","files":1,"time":1388944870,"description":"Young Jim Hawkins, while running the Benbow Inn with his mother, meets Captain Billy Bones, who dies at the inn while it is beseiged by buccaneers led by Blind Pew... \n\nEncoded....PsiX\nSource....DVD9 NTSC (Thanks!)\nSample....Yes\n\nFormat : Matroska\nFormat version : Version 2\nFile size : 1.60 GiB\nDuration : 2h 11mn\nOverall bit rate : 1 745 Kbps\nEncoded date : UTC 2013-12-30 00:55:07\nWriting application : mkvmerge v6.5.0 ('Isn't she lovely') built on Oct 20 2013 12:50:05\nWriting library : libebml v1.3.0 + libmatroska v1.4.1\n\nVideo\nID : 1\nFormat : AVC\nFormat/Info : Advanced Video Codec\nFormat profile : &lt;a class=&quot;__cf_email__&quot; href=&quot;/cdn-cgi/l/email-protection&quot; data-cfemail=&quot;1a52737d725a562e342b&quot;&gt;[email&amp;#160;protected]&lt;/a&gt;&lt;script cf-hash='f9e31' type=&quot;text/javascript&quot;&gt;\n/* &lt;![CDATA[ */!function(){try{var t=&quot;currentScript&quot;in document?document.currentScript:function(){for(var t=document.getElementsByTagName(&quot;script&quot;),e=t.length;e--;)if(t[e].getAttribute(&quot;cf-hash&quot;))return t[e]}();if(t&amp;&amp;t.previousSibling){var e,r,n,i,c=t.previousSibling,a=c.getAttribute(&quot;data-cfemail&quot;);if(a){for(e=&quot;&quot;,r=parseInt(a.substr(0,2),16),n=2;a.length-n;n+=2)i=parseInt(a.substr(n,2),16)^r,e+=String.fromCharCode(i);e=document.createTextNode(e),c.parentNode.replaceChild(e,c)}}}catch(u){}}();/* ]]&gt; */&lt;/script&gt;\nFormat settings, CABAC : Yes\nFormat settings, ReFrames : 6 frames\nCodec ID : V_MPEG4/ISO/AVC\nDuration : 2h 11mn\nBit rate : 1 551 Kbps\nWidth : 720 pixels\nHeight : 400 pixels\nDisplay aspect ratio : 16:9\nFrame rate mode : Constant\nFrame rate : 23.976 fps\nColor space : YUV\nChroma subsampling : 4:2:0\nBit depth : 8 bits\nScan type : Progressive\nBits/(Pixel*Frame) : 0.225\nStream size : 1.39 GiB (87%)\nWriting library : x264 core 138 r2358 9e941d1\nLanguage : English\nDefault : Yes\nForced : No\n\nAudio\nID : 2\nFormat : AC-3\nFormat/Info : Audio Coding 3\nFormat profile : Dolby Digital\nMode extension : CM (complete main)\nFormat settings, Endianness : Big\nCodec ID : A_AC3\nDuration : 2h 11mn\nBit rate mode : Constant\nBit rate : 192 Kbps\nChannel count : 2 channels\nChannel positions : Front: L R\nSampling rate : 48.0 KHz\nBit depth : 16 bits\nCompression mode : Lossy\nStream size : 180 MiB (11%)\nDefault : Yes\nForced : No","torrent":{"xt":"urn:btih:3f4ab8313b7764ee131773024056d6bdeac0b25f","amp;dn":"Treasure+Island+1990+DVDRip+x264+AC3-PsiX","amp;tr":["udp%3A%2F%2Ftracker.openbittorrent.com%3A80","udp%3A%2F%2Fopen.demonii.com%3A1337","udp%3A%2F%2Ftracker.coppersurfer.tk%3A6969","udp%3A%2F%2Fexodus.desync.com%3A6969"],"infoHash":"3f4ab8313b7764ee131773024056d6bdeac0b25f","infoHashBuffer":{"type":"Buffer","data":[63,74,184,49,59,119,100,238,19,23,115,2,64,86,214,189,234,192,178,95]},"announce":[],"urlList":[]}}